<?xml version="1.0" encoding="utf-8"?>
<!-- Generator: Adobe Illustrator 27.9.2, SVG Export Plug-In . SVG Version: 6.00 Build 0)  -->
<svg version="1.1" xmlns="http://www.w3.org/2000/svg" xmlns:xlink="http://www.w3.org/1999/xlink" x="0px" y="0px"
	 viewBox="0 0 150 19" style="enable-background:new 0 0 150 19;" xml:space="preserve">
<style type="text/css">
	.st0{fill:#181A1F;}
	.st1{fill:#FFFFFF;}
</style>
<g id="Layer_1">
	<g>
		<path class="st0" d="M-1285.81-75.71v-18.84h4.24v15.42h13.85v3.43H-1285.81z"/>
		<path class="st0" d="M-1257.41-75.58c-1.92,0-3.44-0.25-4.56-0.74c-1.11-0.51-1.91-1.27-2.38-2.29c-0.48-1.02-0.72-2.3-0.72-3.85
			v-12.1h4.24v12.1c0,1.34,0.31,2.25,0.93,2.74c0.64,0.47,1.7,0.71,3.21,0.71h5.11c1.5,0,2.56-0.24,3.18-0.71
			c0.64-0.49,0.95-1.41,0.95-2.74v-12.1h4.24v12.1c0,1.55-0.24,2.83-0.72,3.85c-0.48,1.02-1.27,1.78-2.38,2.29
			c-1.11,0.49-2.63,0.74-4.56,0.74H-1257.41z"/>
		<path class="st0" d="M-1241.1-75.71l7.1-9.41l-7.1-9.43h5.17l5.69,7.72h2.44l5.7-7.72h5.17l-7.1,9.43l7.1,9.41h-5.19l-5.67-7.69
			h-2.44l-5.67,7.69H-1241.1z"/>
		<path class="st0" d="M-1214.83-75.71v-18.84h15.87c1.96,0,3.48,0.49,4.56,1.48c1.09,0.98,1.64,2.48,1.64,4.48
			c0,1.7-0.4,3.04-1.19,4.01c-0.79,0.97-1.92,1.57-3.39,1.82l4.37,7.06h-4.82l-4.05-6.93h-8.74v6.93H-1214.83z M-1199.47-91.13
			h-11.12v5.03l11.12,0.03c0.78,0,1.37-0.19,1.77-0.58c0.42-0.39,0.64-1.04,0.64-1.95c0-0.93-0.21-1.58-0.64-1.95
			C-1198.1-90.93-1198.69-91.13-1199.47-91.13z"/>
		<path class="st0" d="M-1189.59-75.71v-18.84h4.24v18.84H-1189.59z"/>
		<path class="st0" d="M-1181.65-75.71v-18.84h3.12l8.48-0.03c3.42,0,6.08,0.8,7.97,2.4c1.89,1.6,2.83,3.94,2.83,7.04
			c0,3.09-0.95,5.44-2.83,7.04c-1.89,1.6-4.55,2.4-7.97,2.4H-1181.65z M-1170.34-91.15h-7.07v12.02h7.07c2.22,0,3.91-0.48,5.06-1.45
			c1.15-0.97,1.72-2.49,1.72-4.56c0-2.09-0.57-3.61-1.72-4.56C-1166.42-90.67-1168.11-91.15-1170.34-91.15z"/>
		<path class="st0" d="M-1156.58-75.71v-18.84h20.77v3.43h-16.53v4.16h14.99v3.43h-14.99v4.4h16.53v3.43H-1156.58z"/>
	</g>
	<path class="st0" d="M-0.51-98.71v-18.84h4.24v15.42h13.85v3.43H-0.51z"/>
	<path class="st0" d="M27.89-98.58c-1.92,0-3.44-0.25-4.56-0.74c-1.11-0.51-1.91-1.27-2.38-2.29c-0.48-1.02-0.72-2.3-0.72-3.85
		v-12.1h4.24v12.1c0,1.34,0.31,2.25,0.93,2.74c0.64,0.47,1.7,0.71,3.21,0.71h5.11c1.5,0,2.56-0.24,3.18-0.71
		c0.64-0.49,0.95-1.41,0.95-2.74v-12.1h4.24v12.1c0,1.55-0.24,2.83-0.72,3.85c-0.48,1.02-1.27,1.78-2.38,2.29
		c-1.11,0.49-2.63,0.74-4.56,0.74H27.89z"/>
	<path class="st0" d="M44.2-98.71l7.1-9.41l-7.1-9.43h5.17l5.69,7.72h2.44l5.69-7.72h5.17l-7.1,9.43l7.1,9.41h-5.19l-5.67-7.69
		h-2.44l-5.67,7.69H44.2z"/>
	<path class="st0" d="M70.47-98.71v-18.84h15.87c1.96,0,3.48,0.49,4.56,1.48c1.09,0.98,1.64,2.48,1.64,4.48
		c0,1.7-0.4,3.04-1.19,4.01c-0.79,0.97-1.92,1.57-3.39,1.82l4.37,7.06H87.5l-4.05-6.93h-8.74v6.93H70.47z M85.83-114.13H74.71v5.03
		l11.12,0.03c0.78,0,1.37-0.19,1.77-0.58c0.42-0.39,0.64-1.04,0.64-1.95c0-0.93-0.21-1.58-0.64-1.95
		C87.2-113.93,86.61-114.13,85.83-114.13z"/>
	<g>
		<rect x="120.38" y="0.59" class="st1" width="3.38" height="18"/>
		<path class="st1" d="M123.26,1.09v17h-2.39v-17H123.26 M124.26,0.09h-4.39v19h4.39V0.09L124.26,0.09z"/>
	</g>
	<path class="st0" d="M103.66-98.71v-18.84h3.12l8.48-0.03c3.43,0,6.08,0.8,7.97,2.4c1.89,1.6,2.83,3.94,2.83,7.04
		c0,3.09-0.94,5.44-2.83,7.04c-1.89,1.6-4.55,2.4-7.97,2.4H103.66z M114.97-114.15h-7.07v12.02h7.07c2.23,0,3.91-0.48,5.06-1.45
		c1.15-0.97,1.72-2.49,1.72-4.56c0-2.09-0.57-3.61-1.72-4.56C118.88-113.67,117.19-114.15,114.97-114.15z"/>
	<g>
		<polygon class="st1" points="128.22,18.44 128.22,0.5 148.65,0.5 148.65,2.94 131.6,2.94 131.6,8.13 147.07,8.13 147.07,10.57 
			131.6,10.57 131.6,15.99 148.65,15.99 148.65,18.44 		"/>
		<path class="st1" d="M148.15,1v1.44H132.1h-1v1v4.19v1h1h14.47v1.44H132.1h-1v1v4.42v1h1h16.05v1.44h-19.43V1H148.15 M149.15,0
			h-21.43v18.94h21.43v-3.44H132.1v-4.42h15.47V7.63H132.1V3.44h17.05V0L149.15,0z"/>
	</g>
	<g>
		<path class="st1" d="M11.3,18.31c-6.19,0-10.04-3.4-10.04-8.88c0-5.56,3.82-8.88,10.21-8.88c4.09,0,6.94,1.89,8.37,3.8l-2.7,1.39
			c-1.57-1.92-3.25-2.71-5.73-2.71c-4.51,0-7.2,2.39-7.2,6.4c0,4.01,2.69,6.4,7.2,6.4c2.61,0,4.52-0.89,5.83-2.72l2.65,1.37
			C18.1,16.89,14.93,18.31,11.3,18.31z"/>
		<path class="st1" d="M11.47,1.06c3.57,0,6.14,1.5,7.6,3.14l-1.8,0.93c-1.6-1.83-3.35-2.59-5.85-2.59c-4.75,0-7.7,2.64-7.7,6.9
			s2.95,6.9,7.7,6.9c2.61,0,4.58-0.85,5.97-2.59l1.73,0.9c-1.75,2-4.59,3.17-7.82,3.17c-5.98,0-9.54-3.13-9.54-8.38
			S5.39,1.06,11.47,1.06 M11.47,0.06c-6.56,0-10.71,3.5-10.71,9.38s4.15,9.38,10.54,9.38c4.44,0,7.72-2.02,9.33-4.51l-3.55-1.84
			c-1.26,2.02-3.14,2.87-5.66,2.87c-4.03,0-6.7-2.02-6.7-5.9c0-3.88,2.67-5.9,6.7-5.9c2.53,0,4.07,0.85,5.59,2.85l3.57-1.84
			C19.03,2.1,15.75,0.06,11.47,0.06L11.47,0.06z"/>
	</g>
	<g>
		<polygon class="st1" points="39.58,18.4 39.58,10.68 25.41,10.68 25.41,18.4 21.99,18.4 21.99,0.44 25.41,0.44 25.41,7.89 
			39.58,7.89 39.58,0.44 42.99,0.44 42.99,18.4 		"/>
		<path class="st1" d="M42.49,0.94V17.9h-2.42v-6.72v-1h-1H25.91h-1v1v6.72h-2.42V0.94h2.42v6.45v1h1h13.17h1v-1V0.94H42.49
			 M43.49-0.06h-4.42v7.45H25.91v-7.45h-4.42V18.9h4.42v-7.72h13.17v7.72h4.42V-0.06L43.49-0.06z"/>
	</g>
	<g>
		<path class="st1" d="M65.28,18.39l-1.96-4h-11.7l-1.96,4h-3.34l9.2-17.9h3.97l9.2,17.9H65.28z M52.85,11.88h9.2l-4.6-9.33
			L52.85,11.88z"/>
		<path class="st1" d="M59.17,0.99l8.68,16.9h-2.27l-1.69-3.44l-0.27-0.56H63H51.93h-0.62l-0.27,0.56l-1.69,3.44h-2.21l8.68-16.9
			H59.17 M52.05,12.38h1.61h7.59h1.61l-0.71-1.44l-3.8-7.7l-0.9-1.82l-0.9,1.82l-3.8,7.7L52.05,12.38 M59.78-0.01H55.2l-9.71,18.9
			h4.48l1.96-4H63l1.96,4h4.53L59.78-0.01L59.78-0.01z M53.66,11.38l3.8-7.7l3.8,7.7H53.66L53.66,11.38z"/>
	</g>
	<g>
		<path class="st1" d="M82.8,18.44c-6.63,0-10.59-3.28-10.59-8.76V0.44h3.52v8.92c0,4,2.64,6.4,7.08,6.4c4.43,0,7.07-2.39,7.07-6.4
			V0.44h3.51v9.24C93.39,15.16,89.43,18.44,82.8,18.44z"/>
		<path class="st1" d="M92.89,0.94v8.74c0,5.17-3.77,8.26-10.09,8.26c-6.32,0-10.09-3.09-10.09-8.26V0.94h2.51v8.42
			c0,4.32,2.83,6.89,7.58,6.89c4.74,0,7.57-2.58,7.57-6.89V0.94H92.89 M93.89-0.06h-4.51v9.42c0,3.68-2.31,5.89-6.57,5.89
			c-4.26,0-6.58-2.21-6.58-5.89v-9.42h-4.51v9.74c0,5.53,3.92,9.26,11.09,9.26c7.17,0,11.09-3.74,11.09-9.26V-0.06L93.89-0.06z"/>
	</g>
	<g>
		<polygon class="st1" points="97.53,18.42 97.53,0.42 115.75,0.42 115.75,3.17 100.88,3.17 100.88,8.56 113.42,8.56 113.42,11.31 
			100.88,11.31 100.88,18.42 		"/>
		<path class="st1" d="M115.25,0.92v1.75h-13.88h-1v1v4.4v1h1h11.54v1.75h-11.54h-1v1v6.11h-2.34v-17H115.25 M116.25-0.08H97.03v19
			h4.34v-7.11h12.54V8.06h-12.54v-4.4h14.88V-0.08L116.25-0.08z"/>
	</g>
	<path d="M-18.44-49.12v-8.4h1.92v8.4H-18.44z"/>
	<path d="M-5.61-50.72v1.61h-8.65v-8.4h8.53v1.61h-6.62v1.73h5.53v1.61h-5.53v1.85H-5.61z"/>
	<g>
		<path class="st1" d="M0,51.87V33.03h4.24v15.42h13.85v3.43H0z"/>
		<path class="st1" d="M28.4,52c-1.92,0-3.44-0.25-4.56-0.74c-1.11-0.51-1.91-1.27-2.38-2.29c-0.48-1.02-0.72-2.3-0.72-3.85v-12.1
			h4.24v12.1c0,1.34,0.31,2.25,0.93,2.74c0.64,0.47,1.7,0.71,3.21,0.71h5.11c1.5,0,2.56-0.24,3.18-0.71
			c0.64-0.49,0.95-1.41,0.95-2.74v-12.1h4.24v12.1c0,1.55-0.24,2.83-0.72,3.85c-0.48,1.02-1.27,1.78-2.38,2.29
			C38.39,51.75,36.87,52,34.94,52H28.4z"/>
		<path class="st1" d="M44.71,51.87l7.1-9.41l-7.1-9.43h5.17l5.69,7.72h2.44l5.69-7.72h5.17l-7.1,9.43l7.1,9.41h-5.19l-5.67-7.69
			h-2.44l-5.67,7.69H44.71z"/>
		<path class="st1" d="M70.98,51.87V33.03h15.87c1.96,0,3.48,0.49,4.56,1.48c1.09,0.98,1.64,2.48,1.64,4.48
			c0,1.7-0.4,3.04-1.19,4.01c-0.79,0.97-1.92,1.57-3.39,1.82l4.37,7.06h-4.82l-4.05-6.93h-8.74v6.93H70.98z M86.34,36.45H75.22v5.03
			l11.12,0.03c0.78,0,1.37-0.19,1.77-0.58c0.42-0.39,0.64-1.04,0.64-1.95c0-0.93-0.21-1.58-0.64-1.95
			C87.71,36.65,87.12,36.45,86.34,36.45z"/>
		<path class="st1" d="M96.23,51.87V33.03h4.24v18.84H96.23z"/>
		<path class="st1" d="M104.17,51.87V33.03h3.12l8.48-0.03c3.43,0,6.08,0.8,7.97,2.4c1.89,1.6,2.83,3.94,2.83,7.04
			c0,3.09-0.94,5.44-2.83,7.04c-1.89,1.6-4.55,2.4-7.97,2.4H104.17z M115.48,36.43h-7.07v12.02h7.07c2.23,0,3.91-0.48,5.06-1.45
			c1.15-0.97,1.72-2.49,1.72-4.56c0-2.09-0.57-3.61-1.72-4.56C119.39,36.91,117.7,36.43,115.48,36.43z"/>
		<path class="st1" d="M129.23,51.87V33.03H150v3.43h-16.53v4.16h14.99v3.43h-14.99v4.4H150v3.43H129.23z"/>
	</g>
</g>
<g id="Layer_2">
	<path class="st0" d="M-31.8-57.11c-1.94,0-3.47-0.22-4.59-0.66c-1.12-0.46-1.92-1.14-2.4-2.05c-0.48-0.91-0.72-2.06-0.72-3.45
		v-10.84h4.27v10.84c0,1.2,0.31,2.01,0.93,2.46c0.64,0.42,1.72,0.64,3.23,0.64h5.15c1.51,0,2.58-0.21,3.2-0.64
		c0.64-0.44,0.96-1.26,0.96-2.46v-10.84h4.27v10.84c0,1.39-0.24,2.53-0.72,3.45c-0.48,0.91-1.28,1.6-2.4,2.05
		c-1.12,0.44-2.65,0.66-4.59,0.66H-31.8z"/>
	<g>
		<path class="st0" d="M-0.51-24.71v-18.84h4.24v15.42h13.85v3.43H-0.51z"/>
		<path class="st0" d="M27.89-24.58c-1.92,0-3.44-0.25-4.56-0.74c-1.11-0.51-1.91-1.27-2.38-2.29c-0.48-1.02-0.72-2.3-0.72-3.85
			v-12.1h4.24v12.1c0,1.34,0.31,2.25,0.93,2.74c0.64,0.47,1.7,0.71,3.21,0.71h5.11c1.5,0,2.56-0.24,3.18-0.71
			c0.64-0.49,0.95-1.41,0.95-2.74v-12.1h4.24v12.1c0,1.55-0.24,2.83-0.72,3.85c-0.48,1.02-1.27,1.78-2.38,2.29
			c-1.11,0.49-2.63,0.74-4.56,0.74H27.89z"/>
		<path class="st0" d="M44.2-24.71l7.1-9.41l-7.1-9.43h5.17l5.69,7.72h2.44l5.69-7.72h5.17l-7.1,9.43l7.1,9.41h-5.19l-5.67-7.69
			h-2.44l-5.67,7.69H44.2z"/>
		<path class="st0" d="M70.47-24.71v-18.84h15.87c1.96,0,3.48,0.49,4.56,1.48c1.09,0.98,1.64,2.48,1.64,4.48
			c0,1.7-0.4,3.04-1.19,4.01c-0.79,0.97-1.92,1.57-3.39,1.82l4.37,7.06H87.5l-4.05-6.93h-8.74v6.93H70.47z M85.83-40.13H74.71v5.03
			l11.12,0.03c0.78,0,1.37-0.19,1.77-0.58c0.42-0.39,0.64-1.04,0.64-1.95c0-0.93-0.21-1.58-0.64-1.95
			C87.2-39.93,86.61-40.13,85.83-40.13z"/>
		<path class="st0" d="M95.72-24.71v-18.84h4.24v18.84H95.72z"/>
		<path class="st0" d="M103.66-24.71v-18.84h3.12l8.48-0.03c3.43,0,6.08,0.8,7.97,2.4c1.89,1.6,2.83,3.94,2.83,7.04
			c0,3.09-0.94,5.44-2.83,7.04c-1.89,1.6-4.55,2.4-7.97,2.4H103.66z M114.97-40.15h-7.07v12.02h7.07c2.23,0,3.91-0.48,5.06-1.45
			c1.15-0.97,1.72-2.49,1.72-4.56c0-2.09-0.57-3.61-1.72-4.56C118.88-39.67,117.19-40.15,114.97-40.15z"/>
		<path class="st0" d="M128.72-24.71v-18.84h20.77v3.43h-16.53v4.16h14.99v3.43h-14.99v4.4h16.53v3.43H128.72z"/>
	</g>
</g>
</svg>
