<?xml version="1.0" encoding="UTF-8"?>
<svg id="Layer_1" data-name="Layer 1" xmlns="http://www.w3.org/2000/svg" viewBox="0 0 150 19">
  <defs>
    <style>
      .cls-1, .cls-2 {
        stroke-width: 0px;
      }

      .cls-2 {
        fill: #181a1f;
      }
    </style>
  </defs>
  <path class="cls-2" d="m119.38,19.17V.17h4.38v19h-4.38Z"/>
  <path class="cls-2" d="m127.23,19.02V.08h21.43v3.44h-17.05v4.19h15.47v3.44h-15.47v4.42h17.05v3.44h-21.43Z"/>
  <path class="cls-1" d="m16.59,12.54l3.55,1.84c-1.6,2.49-4.88,4.51-9.33,4.51C4.42,18.89.27,15.39.27,9.52S4.42.14,10.98.14c4.27,0,7.55,2.04,9.11,4.49l-3.57,1.84c-1.21-1.97-3.06-2.85-5.59-2.85-4.03,0-6.7,2.02-6.7,5.9s2.67,5.9,6.7,5.9c2.53,0,4.4-.86,5.66-2.87Z"/>
  <path class="cls-1" d="m43,.02v18.95h-4.42v-7.72h-13.17v7.72h-4.42V.02h4.42v7.45h13.17V.02h4.42Z"/>
  <path class="cls-1" d="m62.51,14.97h-11.07l-1.96,4h-4.48L54.71.07h4.58l9.71,18.9h-4.53l-1.96-4Zm-1.75-3.51l-3.8-7.7-3.8,7.7h7.59Z"/>
  <path class="cls-1" d="m93.4.02v9.74c0,5.53-3.92,9.26-11.09,9.26s-11.09-3.74-11.09-9.26V.02h4.51v9.42c0,3.68,2.31,5.89,6.58,5.89s6.57-2.21,6.57-5.89V.02h4.51Z"/>
  <path class="cls-1" d="m100.88,3.75v4.4h12.54v3.75h-12.54v7.11h-4.34V0h19.22v3.75h-14.88Z"/>
</svg>